<?xml version="1.0" encoding="utf-8"?>
<!-- Generator: Adobe Illustrator 24.3.0, SVG Export Plug-In . SVG Version: 6.00 Build 0)  -->
<svg version="1.1" xmlns="http://www.w3.org/2000/svg" xmlns:xlink="http://www.w3.org/1999/xlink" x="0px" y="0px"
	 viewBox="0 0 1920 1080" style="enable-background:new 0 0 1920 1080;" xml:space="preserve">
<style type="text/css">
	.st0{display:none;}
	.st1{display:inline;fill:#DBC426;}
	.st2{display:inline;fill:none;stroke:#384595;stroke-width:4;stroke-miterlimit:10;}
	.st3{display:inline;fill:#C93E2A;}
	.st4{display:inline;fill:#5C4393;}
	.st5{display:inline;fill:#325AA5;}
	.st6{display:inline;fill:#3E9F49;}
	.st7{display:inline;fill:#D16D29;}
	.st8{display:inline;fill:#8BB93D;}
	.st9{display:inline;fill:#44A798;}
	.st10{display:inline;fill:#C62F6F;}
	.st11{display:inline;fill:#AB5094;}
	.st12{display:inline;}
	.st13{font-family:'KozGoPr6N-Regular-90ms-RKSJ-H';}
	.st14{font-size:19.6032px;}
	.st15{letter-spacing:4;}
	.st16{letter-spacing:-9;}
	.st17{display:none;fill:#5C4393;}
	.st18{display:none;fill:#DBC426;}
	.st19{display:none;fill:#3C312D;}
	.st20{fill:#5C4393;}
	.st21{display:inline;fill:#3C312D;}
	.st22{display:inline;fill:#2782C8;}
	.st23{display:inline;fill:#3357A3;}
	.st24{display:inline;fill:#D26E28;}
	.st25{display:inline;fill:#CE5C29;}
	.st26{display:inline;fill:#E5E5E4;}
	.st27{display:inline;fill:#FFFFFF;}
</style>
<g id="レイヤー_10" class="st0">
	<ellipse class="st1" cx="730.4" cy="539" rx="146.1" ry="299.6"/>
	<ellipse class="st1" cx="1199" cy="539" rx="146.1" ry="299.6"/>
	<path class="st1" d="M1052.9,539c0-121.7,57.1-230,146.1-299.6c-64.6-50.6-145.9-80.7-234.3-80.7S795,188.8,730.5,239.4
		C819.4,309,876.5,417.3,876.5,539s-57.1,230-146.1,299.6c64.6,50.6,145.9,80.7,234.3,80.7s169.7-30.1,234.3-80.7
		C1110.1,769,1052.9,660.7,1052.9,539z"/>
</g>
<g id="中心線" class="st0">
	<line class="st2" x1="960" y1="-110.9" x2="960" y2="1317.6"/>
</g>
<g id="配色" class="st0">
	<circle class="st3" cx="121.3" cy="124.3" r="78"/>
	<circle class="st4" cx="1433.2" cy="124.3" r="78"/>
	<circle class="st5" cx="1245.8" cy="124.3" r="78"/>
	<circle class="st6" cx="871" cy="124.3" r="78"/>
	<circle class="st1" cx="496.1" cy="124.3" r="78"/>
	<circle class="st7" cx="308.7" cy="124.3" r="78"/>
	<circle class="st8" cx="683.6" cy="124.3" r="78"/>
	<circle class="st9" cx="1058.4" cy="124.3" r="78"/>
	<circle class="st10" cx="1808" cy="124.3" r="78"/>
	<circle class="st11" cx="1620.6" cy="124.3" r="78"/>
	<text transform="matrix(1 0 0 1 67.3159 272.1029)" class="st12"><tspan x="0" y="0" class="st13 st14 st15">SとBは</tspan><tspan x="80.5" y="0" class="st13 st14">90</tspan><tspan x="102.1" y="0" class="st13 st14 st15">%</tspan><tspan x="123.8" y="0" class="st13 st14">固定、色相を変える</tspan><tspan x="300.2" y="0" class="st13 st14 st16">。</tspan></text>
</g>
<g id="レイヤー_3">
	<circle class="st17" cx="960" cy="627.6" r="388.3"/>
	<circle class="st18" cx="747.9" cy="625.8" r="116.4"/>
	<circle class="st18" cx="1172.1" cy="625.8" r="116.4"/>
	<path class="st19" d="M330.4,744.1c-7.1,0-13.5-5.1-14.8-12.4c-1.4-8.2,4-15.9,12.2-17.4l163.8-28.9c8.2-1.4,15.9,4,17.4,12.2
		c1.4,8.2-4,15.9-12.2,17.4L333,743.9C332.1,744,331.3,744.1,330.4,744.1z"/>
	<path class="st19" d="M485.3,599.6H319c-8.3,0-15-6.7-15-15s6.7-15,15-15h166.3c8.3,0,15,6.7,15,15S493.6,599.6,485.3,599.6z"/>
	<path class="st19" d="M364.3,888.2c-6.1,0-11.9-3.8-14.1-9.9c-2.8-7.8,1.2-16.4,9-19.2l156.3-56.9c7.8-2.8,16.4,1.2,19.2,9
		c2.8,7.8-1.2,16.4-9,19.2l-156.3,56.9C367.7,887.9,366,888.2,364.3,888.2z"/>
	<path class="st19" d="M1589.6,744.1c-0.9,0-1.7-0.1-2.6-0.2L1423.2,715c-8.2-1.4-13.6-9.2-12.2-17.4c1.4-8.2,9.2-13.6,17.4-12.2
		l163.8,28.9c8.2,1.4,13.6,9.2,12.2,17.4C1603.1,739,1596.7,744.1,1589.6,744.1z"/>
	<path class="st19" d="M1601,599.6h-166.3c-8.3,0-15-6.7-15-15s6.7-15,15-15H1601c8.3,0,15,6.7,15,15S1609.2,599.6,1601,599.6z"/>
	<path class="st19" d="M1555.7,888.2c-1.7,0-3.4-0.3-5.1-0.9l-156.3-56.9c-7.8-2.8-11.8-11.4-9-19.2c2.8-7.8,11.4-11.8,19.2-9
		l156.3,56.9c7.8,2.8,11.8,11.4,9,19.2C1567.6,884.4,1561.9,888.2,1555.7,888.2z"/>
	<path class="st17" d="M1421.2,161.7l-203,53.5c-16.1,4.2-21.1,24.5-8.9,35.8l166.5,153.3c12.2,11.2,32,4.5,34.9-11.8l36.5-206.7
		C1449.9,170.5,1436.1,157.8,1421.2,161.7z"/>
	<path class="st20" d="M497.2,159.9l205.2,54c15.6,4.1,20.4,23.8,8.6,34.7L542.7,403.5c-11.8,10.9-31,4.4-33.8-11.4L472,183.1
		C469.4,168.5,482.9,156.1,497.2,159.9z"/>
</g>
<g id="レイヤー_4" class="st0">
	<path class="st21" d="M788.6,224.5c0-94.7,76.7-171.4,171.4-171.4s171.4,76.7,171.4,171.4"/>
	<circle class="st3" cx="960" cy="627.4" r="388.3"/>
	<path class="st21" d="M519.9,377.5c-1.7,0-3.4-0.3-5.1-0.9l-156.3-56.9c-7.8-2.8-11.8-11.4-9-19.2c2.8-7.8,11.4-11.8,19.2-9
		l156.3,56.9c7.8,2.8,11.8,11.4,9,19.2C531.8,373.7,526.1,377.5,519.9,377.5z"/>
	<path class="st21" d="M1399.8,379.3c-6.1,0-11.9-3.8-14.1-9.9c-2.8-7.8,1.2-16.4,9-19.2l156.3-56.9c7.8-2.8,16.4,1.2,19.2,9
		s-1.2,16.4-9,19.2l-156.3,56.9C1403.2,379,1401.5,379.3,1399.8,379.3z"/>
	<path class="st21" d="M485.3,599.8H319c-8.3,0-15-6.7-15-15s6.7-15,15-15h166.3c8.3,0,15,6.7,15,15S493.6,599.8,485.3,599.8z"/>
	<path class="st21" d="M364.3,888.4c-6.1,0-11.9-3.8-14.1-9.9c-2.8-7.8,1.2-16.4,9-19.2l156.3-56.9c7.8-2.8,16.4,1.2,19.2,9
		c2.8,7.8-1.2,16.4-9,19.2l-156.3,56.9C367.7,888.1,366,888.4,364.3,888.4z"/>
	<path class="st21" d="M1601,599.8h-166.3c-8.3,0-15-6.7-15-15s6.7-15,15-15H1601c8.3,0,15,6.7,15,15S1609.2,599.8,1601,599.8z"/>
	<path class="st21" d="M1555.7,888.4c-1.7,0-3.4-0.3-5.1-0.9l-156.3-56.9c-7.8-2.8-11.8-11.4-9-19.2c2.8-7.8,11.4-11.8,19.2-9
		l156.3,56.9c7.8,2.8,11.8,11.4,9,19.2C1567.6,884.6,1561.9,888.4,1555.7,888.4z"/>
	<circle class="st1" cx="783.4" cy="496.6" r="76.1"/>
	<circle class="st1" cx="783.4" cy="768" r="76.1"/>
	<circle class="st1" cx="1141.3" cy="496.6" r="76.1"/>
	<circle class="st1" cx="1141.3" cy="768" r="76.1"/>
	<circle class="st1" cx="962.3" cy="629.9" r="76.1"/>
</g>
<g id="レイヤー_1" class="st0">
	<circle class="st10" cx="1352.1" cy="286.3" r="112.9"/>
	<circle class="st10" cx="567.9" cy="286.3" r="112.9"/>
	<circle class="st10" cx="956.6" cy="131.2" r="112.9"/>
	<circle class="st10" cx="960" cy="627.6" r="340.8"/>
</g>
<g id="レイヤー_5" class="st0">
	<path class="st22" d="M958.8,593.6c0,0-170.1,236.3-380,236.3s-380-236.3-380-236.3s170.1-236.3,380-236.3S958.8,593.6,958.8,593.6
		z"/>
	<path class="st22" d="M966.1,600l245.3,217.1c5.6,4.9,14.4,1,14.4-6.5V376.5c0-7.4-8.8-11.4-14.4-6.5L966.1,587.1
		C962.2,590.5,962.2,596.6,966.1,600z"/>
</g>
<g id="レイヤー_6" class="st0">
	<path class="st23" d="M961.4,593.6c0,0,170.1-236.3,380-236.3s380,236.3,380,236.3s-170.1,236.3-380,236.3S961.4,593.6,961.4,593.6
		z"/>
	<path class="st23" d="M954.1,587.1L708.8,370c-5.6-4.9-14.4-1-14.4,6.5v434.2c0,7.4,8.8,11.4,14.4,6.5L954.1,600
		C958,596.6,958,590.5,954.1,587.1z"/>
</g>
<g id="レイヤー_7" class="st0">
	<path class="st24" d="M1290.4,475.5H629.6c-6.1,0-11.1-5-11.1-11.1V250.2c0-6.1,5-11.1,11.1-11.1h660.8c6.1,0,11.1,5,11.1,11.1
		v214.2C1301.5,470.5,1296.5,475.5,1290.4,475.5z"/>
	<path class="st24" d="M944.7,1015.6H630.2c-6.4,0-11.6-5.2-11.6-11.6V495.8c0-6.4,5.2-11.6,11.6-11.6h314.6
		c6.4,0,11.6,5.2,11.6,11.6V1004C956.4,1010.4,951.2,1015.6,944.7,1015.6z"/>
	<path class="st24" d="M1290.6,1015.6h-316c-6,0-10.9-4.9-10.9-10.9V495.1c0-6,4.9-10.9,10.9-10.9h316c6,0,10.9,4.9,10.9,10.9v509.7
		C1301.5,1010.8,1296.6,1015.6,1290.6,1015.6z"/>
	<path class="st24" d="M694.1,16.2c8.4-50.7-135.5,128.1-85.2,205.8l146.9-0.5C729.1,190.2,682.3,87.4,694.1,16.2z"/>
	<path class="st24" d="M1225.9,16.2c-8.4-50.7,135.5,128.1,85.2,205.8l-146.9-0.5C1190.9,190.2,1237.7,87.4,1225.9,16.2z"/>
</g>
<g id="レイヤー_8" class="st0">
	<polygon class="st24" points="960,1017.4 1370.4,306.7 549.6,306.7 	"/>
	<path class="st24" d="M696.9,26.7L556.8,269.3c-2.3,4.1,0.6,9.1,5.3,9.1h280.2c4.7,0,7.6-5.1,5.3-9.1L707.4,26.7
		C705.1,22.6,699.2,22.6,696.9,26.7z"/>
	<path class="st24" d="M1213,26.6l-140.1,242.7c-2.3,4,0.6,9.1,5.3,9.1h280.3c4.7,0,7.6-5.1,5.3-9.1L1223.6,26.6
		C1221.2,22.6,1215.4,22.6,1213,26.6z"/>
</g>
<g id="レイヤー_9" class="st0">
	<circle class="st3" cx="959" cy="539" r="240.9"/>
	<path class="st3" d="M1443.3,569H1277c-16.6,0-30-13.4-30-30c0-16.6,13.4-30,30-30h166.3c16.6,0,30,13.4,30,30
		C1473.3,555.6,1459.9,569,1443.3,569z"/>
	<path class="st3" d="M641,569H474.7c-16.6,0-30-13.4-30-30c0-16.6,13.4-30,30-30H641c16.6,0,30,13.4,30,30
		C671,555.6,657.6,569,641,569z"/>
	<path class="st3" d="M1318.6,928.6c-7.7,0-15.4-2.9-21.2-8.8l-117.6-117.6c-11.7-11.7-11.7-30.7,0-42.4c11.7-11.7,30.7-11.7,42.4,0
		l117.6,117.6c11.7,11.7,11.7,30.7,0,42.4C1334,925.7,1326.3,928.6,1318.6,928.6z"/>
	<path class="st3" d="M717,327c-7.7,0-15.4-2.9-21.2-8.8L578.2,200.6c-11.7-11.7-11.7-30.7,0-42.4c11.7-11.7,30.7-11.7,42.4,0
		l117.6,117.6c11.7,11.7,11.7,30.7,0,42.4C732.3,324,724.6,327,717,327z"/>
	<path class="st3" d="M959,1053.3c-16.6,0-30-13.4-30-30V857c0-16.6,13.4-30,30-30s30,13.4,30,30v166.3
		C989,1039.8,975.6,1053.3,959,1053.3z"/>
	<path class="st3" d="M959,251c-16.6,0-30-13.4-30-30V54.7c0-16.6,13.4-30,30-30s30,13.4,30,30V221C989,237.6,975.6,251,959,251z"/>
	<path class="st3" d="M1201,327c-7.7,0-15.4-2.9-21.2-8.8c-11.7-11.7-11.7-30.7,0-42.4l117.6-117.6c11.7-11.7,30.7-11.7,42.4,0
		c11.7,11.7,11.7,30.7,0,42.4l-117.6,117.6C1216.4,324,1208.7,327,1201,327z"/>
	<path class="st3" d="M599.4,928.6c-7.7,0-15.4-2.9-21.2-8.8c-11.7-11.7-11.7-30.7,0-42.4l117.6-117.6c11.7-11.7,30.7-11.7,42.4,0
		c11.7,11.7,11.7,30.7,0,42.4L620.6,919.8C614.7,925.7,607.1,928.6,599.4,928.6z"/>
</g>
<g id="レイヤー_11" class="st0">
	<path class="st10" d="M959.7,963.7V280.9c216.7-373.9,575.3-32.4,423.3,186.9C1382.9,467.8,1080.4,833.7,959.7,963.7z"/>
	<path class="st10" d="M959.7,963.7V280.9C743-93,384.4,248.4,536.4,467.8C536.4,467.8,838.9,833.7,959.7,963.7z"/>
	<path class="st11" d="M959.7,835.9V390.1c141.5-244.1,375.5-21.2,276.3,122C1236,512.1,1038.5,751,959.7,835.9z"/>
	<path class="st11" d="M959.7,835.9V390.1c-141.5-244.1-375.5-21.2-276.3,122C683.4,512.1,880.8,751,959.7,835.9z"/>
</g>
<g id="レイヤー_12" class="st0">
	<polygon class="st24" points="960,1017.4 1370.3,306.7 549.6,306.7 	"/>
	<path class="st24" d="M562.7,472.5L422.6,229.9c-2.3-4.1,0.6-9.1,5.3-9.1h280.2c4.7,0,7.6,5.1,5.3,9.1L573.2,472.5
		C570.9,476.6,565,476.6,562.7,472.5z"/>
	<path class="st24" d="M1346.8,472.5l-140.1-242.7c-2.3-4,0.6-9.1,5.3-9.1h280.3c4.7,0,7.6,5.1,5.3,9.1l-140.1,242.7
		C1354.9,476.6,1349.1,476.6,1346.8,472.5z"/>
</g>
<g id="レイヤー_13" class="st0">
	<path class="st1" d="M1296.4,1015.6H623.6c-2.8,0-5.1-2.3-5.1-5.1V489.2c0-2.8,2.3-5.1,5.1-5.1h672.8c2.8,0,5.1,2.3,5.1,5.1v521.4
		C1301.5,1013.4,1299.2,1015.6,1296.4,1015.6z"/>
	<path class="st3" d="M956.9,73.2l-509,394.7c-3.8,2.9-1.7,9,3.1,9h1018c4.8,0,6.9-6.1,3.1-9l-509-394.7
		C961.3,71.8,958.7,71.8,956.9,73.2z"/>
	<path class="st1" d="M1328.8,289.6h-54.6c-2.8,0-5.1-2.3-5.1-5.1V103.7c0-2.8,2.3-5.1,5.1-5.1h54.6c2.8,0,5.1,2.3,5.1,5.1v180.8
		C1333.8,287.3,1331.5,289.6,1328.8,289.6z"/>
	<path class="st25" d="M925.4,1015.6H729.6c-2.8,0-5.1-2.3-5.1-5.1V636.4c0-2.8,2.3-5.1,5.1-5.1h195.8c2.8,0,5.1,2.3,5.1,5.1v374.2
		C930.5,1013.4,928.2,1015.6,925.4,1015.6z"/>
	<path class="st9" d="M1230,806.3H970.1c-5.6,0-10.1-4.5-10.1-10.1V598.4c0-5.6,4.5-10.1,10.1-10.1H1230c5.6,0,10.1,4.5,10.1,10.1
		v197.8C1240.1,801.7,1235.6,806.3,1230,806.3z"/>
</g>
<g id="レイヤー_14" class="st0">
	<path class="st6" d="M960,963.7l295.4-309.3c0.8-0.8,1.4-2.4,1.4-3.5V78.6c0-6.3-3.8-7.9-8.4-3.7L961.7,334.2
		c-0.9,0.8-1.7,2.5-1.7,3.7V963.7z"/>
	<path class="st1" d="M960,963.7L664.6,654.4c-0.9-0.9-1.4-2.2-1.4-3.5V78.6c0-4.4,5.2-6.7,8.4-3.7l286.7,259.4
		c1.1,1,1.7,2.3,1.7,3.7V963.7z"/>
</g>
<g id="レイヤー_16" class="st0">
	<path class="st7" d="M1249.7,546.6c75.5-79.6,133.6-141.9,133.6-141.9c152-194.2-206.6-496.5-423.3-165.5v20.1v584.4v0.2
		c0,0,0.1,0,0.1-0.1c216.7,319.8,575.2,27.6,423.2-160.1C1383.3,683.8,1325.1,623.6,1249.7,546.6z"/>
	<path class="st7" d="M670.3,546.6C594.9,467,536.7,404.7,536.7,404.7C384.7,210.5,743.3-91.8,960,239.2v20.1v584.4v0.2
		c0,0-0.1,0-0.1-0.1c-216.7,319.8-575.2,27.6-423.2-160.1C536.7,683.8,594.9,623.6,670.3,546.6z"/>
	<path class="st10" d="M1152,742.2c105.9-2.2,188-4.5,188-4.5c236.4-27.3,200.9-478.5-173.3-402.9l-13.8,13.6L751.6,744.8l-0.1,0.1
		c0,0,0.1,0,0.1,0c-72.7,365.6,371,413.7,396.8,182.1C1148.4,927,1150.3,846.3,1152,742.2z"/>
	<path class="st10" d="M759.2,344.4c3.5-105.8,6.9-187.9,6.9-187.9c30.3-236.1,481-194.8,400.6,178.4l-13.8,13.6L751.6,744.8
		l-0.1,0.1c0,0,0-0.1,0-0.1c-366.5,68-409-376.3-177-399.1C574.4,345.7,655.1,344.8,759.2,344.4z"/>
	<circle class="st1" cx="960" cy="539" r="172.7"/>
</g>
<g id="レイヤー_17" class="st0">
	<polygon class="st6" points="960,304.8 722.5,716.1 1197.5,716.1 	"/>
	<polygon class="st6" points="1319.5,304.8 1082,716.1 1556.9,716.1 	"/>
	<polygon class="st6" points="600.5,304.8 363.1,716.1 838,716.1 	"/>
	<polygon class="st8" points="1144.2,450.4 990.8,716.1 1297.6,716.1 	"/>
	<polygon class="st8" points="775.8,450.4 622.4,716.1 929.2,716.1 	"/>
</g>
<g id="レイヤー_18" class="st0">
	<path class="st9" d="M1222.2,342.2c-27.7-73.9-121.9-215.1-261.5-206.3C821,127.1,726.8,268.4,699.1,342.2
		c-63.9,170.6-0.1,652.9-0.1,652.9h261.7l0,0h261.7C1222.3,995.1,1286.1,512.9,1222.2,342.2z"/>
	<path class="st7" d="M465.5,978.9L622,728.3c5.3-8.5,18.3-5.5,19.4,4.4l27.9,249.8c0.7,6.2-4.2,11.7-10.4,11.7L474.5,995
		C466.2,995,461.1,985.9,465.5,978.9z"/>
	<path class="st7" d="M1454.5,979L1298,728.4c-5.3-8.5-18.3-5.5-19.4,4.4l-27.9,249.8c-0.7,6.2,4.2,11.7,10.4,11.7l184.4,0.8
		C1453.8,995.1,1458.9,986,1454.5,979z"/>
	<circle class="st26" cx="960" cy="628.6" r="172.7"/>
	<circle class="st5" cx="960" cy="628.6" r="137.9"/>
</g>
<g id="レイヤー_15" class="st0">
	<path class="st26" d="M1340,537.2c0,0-170.1,236.3-380,236.3S580,537.2,580,537.2s170.1-236.3,380-236.3S1340,537.2,1340,537.2z"/>
	<path class="st21" d="M960.7,303.5c-8.3,0-15-6.7-15-15v-88.7c0-8.3,6.7-15,15-15s15,6.7,15,15v88.7
		C975.7,296.8,969,303.5,960.7,303.5z"/>
	<path class="st21" d="M1176.2,372.3c-3.4,0-6.8-1.2-9.6-3.5c-6.3-5.3-7.2-14.8-1.8-21.1l66-78.6c5.3-6.3,14.8-7.2,21.1-1.8
		c6.3,5.3,7.2,14.8,1.8,21.1l-66,78.6C1184.8,370.5,1180.5,372.3,1176.2,372.3z"/>
	<path class="st21" d="M745.1,372.3c-4.3,0-8.5-1.8-11.5-5.4l-66-78.6c-5.3-6.3-4.5-15.8,1.8-21.1c6.3-5.3,15.8-4.5,21.1,1.8
		l66,78.6c5.3,6.3,4.5,15.8-1.8,21.1C752,371.2,748.5,372.3,745.1,372.3z"/>
	<circle class="st21" cx="960.7" cy="537.2" r="172.7"/>
	<circle class="st26" cx="1035.8" cy="472.6" r="54"/>
</g>
<g id="レイヤー_19" class="st0">
	<path class="st5" d="M960,942.4c301,0,545.1-120.6,545.1-269.5H414.9C414.9,821.8,659,942.4,960,942.4z"/>
	<path class="st21" d="M960,669.4c-8.3,0-15-6.7-15-15V151c0-8.3,6.7-15,15-15s15,6.7,15,15v503.4C975,662.7,968.3,669.4,960,669.4z
		"/>
	<polygon class="st3" points="984.6,456.6 980.6,151 1247.3,300.3 	"/>
</g>
<g id="レイヤー_20" class="st0">
	<path class="st1" d="M898.6,988.2l344.8-384.4c4.8-3.8,2.8-11.5-3.2-12.5L981.7,423.1l-94.5,558.4
		C886.1,987.9,893.5,992.2,898.6,988.2z"/>
	<path class="st1" d="M1021.4,89.8L676.6,474.2c-4.8,3.8-2.8,11.5,3.2,12.5l258.5,168.2l94.5-558.4
		C1033.9,90.1,1026.5,85.7,1021.4,89.8z"/>
</g>
<g id="レイヤー_21" class="st0">
	<path class="st9" d="M1466.2,650.9c0.4-4.4,0.7-8.8,0.7-13.4c-0.4-81-78.2-138.2-135.2-174.5C1205.3,382.6,1068.4,347,960,352
		c-108.4-5-245.3,30.7-371.6,111.1c-57,36.3-134.8,93.5-135.2,174.5c0,4.5,0.2,9,0.7,13.4c-0.4,5.1-0.7,10.2-0.7,15.4
		c0,98.6,80,178.6,178.6,178.6c0.6,0,1.1,0,1.7,0c5.7-0.1,11.2-0.4,16.8-0.9c34.8-3.1,82.2-13.5,104.5-21.7
		c70.1-25.7,132.4-49.8,190.9-49.8c4.6,0,9.4-0.4,14.4-1c5,0.6,9.8,1,14.4,1c58.5,0,120.9,24.1,190.9,49.8
		c22.2,8.1,69.6,18.5,104.5,21.7c5.5,0.6,11.1,0.9,16.8,0.9c0.6,0,1.1,0,1.7,0c98.6,0,178.6-80,178.6-178.6
		C1466.8,661.1,1466.6,656,1466.2,650.9z"/>
	<path class="st9" d="M887,1042.6c-8.3,0-15-6.7-15-15V920.8c0-8.3,6.7-15,15-15s15,6.7,15,15v106.8
		C902,1035.9,895.3,1042.6,887,1042.6z"/>
	<path class="st9" d="M740.9,1042.6c-8.3,0-15-6.7-15-15V920.8c0-8.3,6.7-15,15-15s15,6.7,15,15v106.8
		C755.9,1035.9,749.2,1042.6,740.9,1042.6z"/>
	<path class="st9" d="M1179.1,1042.6c-8.3,0-15-6.7-15-15V920.8c0-8.3,6.7-15,15-15s15,6.7,15,15v106.8
		C1194.1,1035.9,1187.3,1042.6,1179.1,1042.6z"/>
	<path class="st9" d="M1033,1042.6c-8.3,0-15-6.7-15-15V920.8c0-8.3,6.7-15,15-15s15,6.7,15,15v106.8
		C1048,1035.9,1041.3,1042.6,1033,1042.6z"/>
	<path class="st9" d="M545.7,1044.6c-0.8,0-1.5,0-2-0.1c-8.2-1-14-8.6-13-16.8c1-7.8,7.8-13.4,15.6-13.1c5.9-0.3,36.5-5.9,58-27.4
		c19.8-19.8,25.3-59.2,25-68.3c-1.1-7.4,3.5-14.7,10.9-16.7c8-2.1,16.2,2.6,18.4,10.6c1.8,6.9-0.6,25.4-4.1,39.3
		c-4.1,16.5-12.4,39.7-29.1,56.3C596.9,1037,557.4,1044.6,545.7,1044.6z M547.4,1014.8C547.4,1014.8,547.4,1014.8,547.4,1014.8
		C547.4,1014.8,547.4,1014.8,547.4,1014.8z M629.6,920.6C629.6,920.6,629.6,920.6,629.6,920.6C629.6,920.6,629.6,920.6,629.6,920.6z
		 M629.2,918.6C629.2,918.6,629.2,918.6,629.2,918.6S629.2,918.6,629.2,918.6z"/>
	<path class="st9" d="M1374.3,1044.6c-11.7,0-51.3-7.7-79.8-36.2c-16.6-16.6-25-39.8-29.1-56.3c-3.4-13.9-5.9-32.5-4.1-39.3
		c2.2-8,10.4-12.7,18.4-10.6c7.4,2,12,9.2,10.9,16.7c-0.3,9.2,5.2,48.5,25,68.3c21.5,21.5,52.1,27.1,58,27.4
		c7.7-0.3,14.6,5.3,15.6,13.1c1,8.2-4.8,15.7-13,16.8C1375.8,1044.6,1375.1,1044.6,1374.3,1044.6z M1372.6,1014.8
		C1372.6,1014.8,1372.6,1014.8,1372.6,1014.8C1372.6,1014.8,1372.6,1014.8,1372.6,1014.8z M1290.4,920.6
		C1290.4,920.6,1290.4,920.6,1290.4,920.6C1290.4,920.6,1290.4,920.6,1290.4,920.6z M1290.4,920.6
		C1290.4,920.6,1290.4,920.6,1290.4,920.6C1290.4,920.6,1290.4,920.6,1290.4,920.6z"/>
</g>
<g id="レイヤー_22" class="st0">
	<path class="st9" d="M956.9,73.2l-509,394.7c-3.8,2.9-1.7,9,3.1,9h1018c4.8,0,6.9-6.1,3.1-9l-509-394.7
		C961.3,71.8,958.7,71.8,956.9,73.2z"/>
</g>
<g id="レイヤー_23" class="st0">
	<circle class="st5" cx="960" cy="209.1" r="137"/>
	<path class="st5" d="M1089.1,885.7H830.9c-4.2,0-7.6-3.4-7.6-7.6V391.8c0-4.2,3.4-7.6,7.6-7.6h258.2c4.2,0,7.6,3.4,7.6,7.6v486.4
		C1096.7,882.3,1093.3,885.7,1089.1,885.7z"/>
	<path class="st5" d="M902.8,1050.8h-71c-1.2,0-2.1-0.9-2.1-2.1V912.1c0-1.2,0.9-2.1,2.1-2.1h71c1.2,0,2.1,0.9,2.1,2.1v136.6
		C904.9,1049.9,903.9,1050.8,902.8,1050.8z"/>
	<path class="st5" d="M1088.2,1050.8h-71c-1.2,0-2.1-0.9-2.1-2.1V912.1c0-1.2,0.9-2.1,2.1-2.1h71c1.2,0,2.1,0.9,2.1,2.1v136.6
		C1090.3,1049.9,1089.3,1050.8,1088.2,1050.8z"/>
</g>
<g id="レイヤー_24" class="st0">
	<circle class="st3" cx="960" cy="209.1" r="137"/>
	<path class="st3" d="M902.8,1050.8h-71c-1.2,0-2.1-0.9-2.1-2.1V912.1c0-1.2,0.9-2.1,2.1-2.1h71c1.2,0,2.1,0.9,2.1,2.1v136.6
		C904.9,1049.9,903.9,1050.8,902.8,1050.8z"/>
	<path class="st3" d="M1088.2,1050.8h-71c-1.2,0-2.1-0.9-2.1-2.1V912.1c0-1.2,0.9-2.1,2.1-2.1h71c1.2,0,2.1,0.9,2.1,2.1v136.6
		C1090.3,1049.9,1089.3,1050.8,1088.2,1050.8z"/>
	<path class="st3" d="M955.3,386.9L668.9,883.1c-2.1,3.6,0.5,8.1,4.7,8.1h572.9c4.1,0,6.7-4.5,4.7-8.1L964.7,386.9
		C962.6,383.3,957.4,383.3,955.3,386.9z"/>
</g>
<g id="レイヤー_25" class="st0">
	<path class="st11" d="M954.7,43.2L794.1,321.3c-2.4,4.1,0.6,9.2,5.3,9.2h321.1c4.7,0,7.7-5.1,5.3-9.2L965.3,43.2
		C963,39.1,957,39.1,954.7,43.2z"/>
	<path class="st11" d="M965.3,1028.4l160.6-278.1c2.4-4.1-0.6-9.2-5.3-9.2H799.4c-4.7,0-7.7,5.1-5.3,9.2l160.6,278.1
		C957,1032.5,963,1032.5,965.3,1028.4z"/>
	<path class="st11" d="M467.4,544.3l278.1,160.6c4.1,2.4,9.2-0.6,9.2-5.3V378.4c0-4.7-5.1-7.7-9.2-5.3L467.4,533.7
		C463.3,536,463.3,542,467.4,544.3z"/>
	<path class="st11" d="M1452.6,533.7l-278.1-160.6c-4.1-2.4-9.2,0.6-9.2,5.3v321.1c0,4.7,5.1,7.7,9.2,5.3l278.1-160.6
		C1456.7,542,1456.7,536,1452.6,533.7z"/>
	<rect x="754.8" y="502" class="st11" width="410.5" height="73.9"/>
	
		<rect x="754.8" y="498.8" transform="matrix(-1.836970e-16 1 -1 -1.836970e-16 1495.7789 -424.221)" class="st11" width="410.5" height="73.9"/>
</g>
<g id="レイヤー_27" class="st0">
	<rect x="-8.5" y="-8.5" class="st27" width="1937" height="1097.1"/>
</g>
</svg>
