<svg xmlns="http://www.w3.org/2000/svg" width="1920" height="1080" viewBox="0 0 1920 1080">
  <g id="レイヤー_3" data-name="レイヤー 3">
    <circle cx="960" cy="627.62" r="388.28" fill="#5c4393"/>
    <circle cx="747.92" cy="625.84" r="116.38" fill="#dbc426"/>
    <circle cx="1172.08" cy="625.84" r="116.38" fill="#dbc426"/>
    <path d="M330.41,744.12a15,15,0,0,1-2.59-29.78l163.77-28.87a15,15,0,1,1,5.2,29.54L333,743.89A15.64,15.64,0,0,1,330.41,744.12Z" fill="#3c312d"/>
    <path d="M485.34,599.61H319.05a15,15,0,0,1,0-30H485.34a15,15,0,1,1,0,30Z" fill="#3c312d"/>
    <path d="M364.25,888.18a15,15,0,0,1-5.13-29.1l156.26-56.87a15,15,0,1,1,10.26,28.19L369.38,887.28A15.07,15.07,0,0,1,364.25,888.18Z" fill="#3c312d"/>
    <path d="M1589.59,744.12a15.64,15.64,0,0,1-2.62-.23L1423.21,715a15,15,0,1,1,5.2-29.54l163.77,28.87a15,15,0,0,1-2.59,29.78Z" fill="#3c312d"/>
    <path d="M1601,599.61H1434.66a15,15,0,0,1,0-30H1601a15,15,0,0,1,0,30Z" fill="#3c312d"/>
    <path d="M1555.75,888.18a15.07,15.07,0,0,1-5.13-.9L1394.36,830.4a15,15,0,1,1,10.26-28.19l156.26,56.87a15,15,0,0,1-5.13,29.1Z" fill="#3c312d"/>
    <path d="M1421.24,161.68l-203,53.46a21,21,0,0,0-8.87,35.78l166.52,153.26a21,21,0,0,0,34.91-11.8l36.49-206.74A21,21,0,0,0,1421.24,161.68Z" fill="#5c4393"/>
    <path d="M497.22,159.9l205.15,54a20.35,20.35,0,0,1,8.6,34.65L542.69,403.48A20.36,20.36,0,0,1,508.86,392L472,183.12A20.36,20.36,0,0,1,497.22,159.9Z" fill="#5c4393"/>
  </g>
  <g id="レイヤー_4" data-name="レイヤー 4">
    <path d="M788.58,224.52a171.42,171.42,0,1,1,342.84,0" fill="#3c312d"/>
    <circle cx="960" cy="627.37" r="388.28" fill="#c93e2a"/>
    <path d="M519.93,377.5a14.93,14.93,0,0,1-5.13-.91L358.54,319.72a15,15,0,1,1,10.26-28.19L525.06,348.4a15,15,0,0,1-5.13,29.1Z" fill="#3c312d"/>
    <path d="M1399.8,379.28a15,15,0,0,1-5.13-29.1l156.26-56.87a15,15,0,1,1,10.26,28.19l-156.26,56.87A14.93,14.93,0,0,1,1399.8,379.28Z" fill="#3c312d"/>
    <path d="M485.34,599.83H319.05a15,15,0,0,1,0-30H485.34a15,15,0,1,1,0,30Z" fill="#3c312d"/>
    <path d="M364.25,888.4a15,15,0,0,1-5.13-29.1l156.26-56.87a15,15,0,1,1,10.26,28.19L369.38,887.5A15.07,15.07,0,0,1,364.25,888.4Z" fill="#3c312d"/>
    <path d="M1601,599.83H1434.66a15,15,0,0,1,0-30H1601a15,15,0,0,1,0,30Z" fill="#3c312d"/>
    <path d="M1555.75,888.4a15.07,15.07,0,0,1-5.13-.9l-156.26-56.88a15,15,0,1,1,10.26-28.19l156.26,56.87a15,15,0,0,1-5.13,29.1Z" fill="#3c312d"/>
    <circle cx="783.36" cy="496.56" r="76.11" fill="#dbc426"/>
    <circle cx="783.36" cy="768.05" r="76.11" fill="#dbc426"/>
    <circle cx="1141.3" cy="496.56" r="76.11" fill="#dbc426"/>
    <circle cx="1141.3" cy="768.05" r="76.11" fill="#dbc426"/>
    <circle cx="962.33" cy="629.87" r="76.11" fill="#dbc426"/>
  </g>
  <g id="レイヤー_1" data-name="レイヤー 1">
    <circle cx="1352.1" cy="286.33" r="112.92" fill="#c62f6f"/>
    <circle cx="567.9" cy="286.33" r="112.92" fill="#c62f6f"/>
    <circle cx="956.57" cy="131.24" r="112.92" fill="#c62f6f"/>
    <circle cx="960" cy="627.62" r="340.79" fill="#c62f6f"/>
  </g>
  <g id="レイヤー_5" data-name="レイヤー 5">
    <path d="M958.75,593.57s-170.11,236.27-380,236.27-380-236.27-380-236.27S369,357.3,578.8,357.3,958.75,593.57,958.75,593.57Z" fill="#2782c8"/>
    <path d="M966.06,600l245.31,217.09a8.63,8.63,0,0,0,14.36-6.47V376.48a8.64,8.64,0,0,0-14.36-6.47L966.06,587.1A8.65,8.65,0,0,0,966.06,600Z" fill="#2782c8"/>
  </g>
  <g id="レイヤー_6" data-name="レイヤー 6">
    <path d="M961.41,593.57s170.12-236.27,380-236.27,380,236.27,380,236.27-170.11,236.27-380,236.27S961.41,593.57,961.41,593.57Z" fill="#3357a3"/>
    <path d="M954.1,587.1,708.8,370a8.64,8.64,0,0,0-14.36,6.47V810.66a8.63,8.63,0,0,0,14.36,6.47L954.1,600A8.63,8.63,0,0,0,954.1,587.1Z" fill="#3357a3"/>
  </g>
  <g id="レイヤー_7" data-name="レイヤー 7">
    <rect x="618.53" y="239.09" width="682.94" height="236.41" rx="11.1" fill="#d26e28"/>
    <rect x="618.53" y="484.17" width="337.85" height="531.48" rx="11.64" fill="#d26e28"/>
    <rect x="963.62" y="484.17" width="337.85" height="531.48" rx="10.91" fill="#d26e28"/>
    <path d="M694.06,16.18C702.45-34.53,558.52,144.25,608.9,222l146.9-.45C729.1,190.2,682.29,87.38,694.06,16.18Z" fill="#d26e28"/>
    <path d="M1225.94,16.18c-8.39-50.71,135.54,128.07,85.16,205.77l-146.9-.45C1190.9,190.2,1237.71,87.38,1225.94,16.18Z" fill="#d26e28"/>
  </g>
  <g id="レイヤー_8" data-name="レイヤー 8">
    <polygon points="960 1017.44 1370.35 306.69 549.65 306.69 960 1017.44" fill="#d26e28"/>
    <path d="M696.89,26.67,556.79,269.33a6.1,6.1,0,0,0,5.28,9.14H842.26a6.1,6.1,0,0,0,5.28-9.14L707.44,26.67A6.09,6.09,0,0,0,696.89,26.67Z" fill="#d26e28"/>
    <path d="M1213,26.64,1072.9,269.36a6.07,6.07,0,0,0,5.26,9.11h280.26a6.07,6.07,0,0,0,5.26-9.11L1223.55,26.64A6.07,6.07,0,0,0,1213,26.64Z" fill="#d26e28"/>
  </g>
  <g id="レイヤー_9" data-name="レイヤー 9">
    <circle cx="959" cy="538.99" r="240.89" fill="#c93e2a"/>
    <path d="M1443.29,569H1277a30,30,0,0,1,0-60h166.29a30,30,0,0,1,0,60Z" fill="#c93e2a"/>
    <path d="M641,569H474.71a30,30,0,0,1,0-60H641a30,30,0,0,1,0,60Z" fill="#c93e2a"/>
    <path d="M1318.62,928.6a29.87,29.87,0,0,1-21.21-8.78L1179.82,802.23a30,30,0,1,1,42.43-42.42l117.58,117.58a30,30,0,0,1-21.21,51.21Z" fill="#c93e2a"/>
    <path d="M717,327a29.91,29.91,0,0,1-21.22-8.78L578.17,200.58a30,30,0,0,1,42.43-42.42L738.18,275.74A30,30,0,0,1,717,327Z" fill="#c93e2a"/>
    <path d="M959,1053.28a30,30,0,0,1-30-30V857a30,30,0,0,1,60,0v166.29A30,30,0,0,1,959,1053.28Z" fill="#c93e2a"/>
    <path d="M959,251a30,30,0,0,1-30-30V54.7a30,30,0,0,1,60,0V221A30,30,0,0,1,959,251Z" fill="#c93e2a"/>
    <path d="M1201,327a30,30,0,0,1-21.21-51.21L1297.4,158.16a30,30,0,0,1,42.43,42.42L1222.25,318.17A29.91,29.91,0,0,1,1201,327Z" fill="#c93e2a"/>
    <path d="M599.38,928.6a30,30,0,0,1-21.21-51.21L695.75,759.81a30,30,0,0,1,42.43,42.42L620.6,919.82A29.91,29.91,0,0,1,599.38,928.6Z" fill="#c93e2a"/>
  </g>
  <g id="レイヤー_11" data-name="レイヤー 11">
    <path d="M959.66,963.73V280.86C1176.37-93,1535,248.43,1382.92,467.76,1382.92,467.76,1080.43,833.67,959.66,963.73Z" fill="#c62f6f"/>
    <path d="M959.66,963.73V280.86C743-93,384.38,248.43,536.41,467.76,536.41,467.76,838.9,833.67,959.66,963.73Z" fill="#c62f6f"/>
    <path d="M959.66,835.85V390.08C1101.13,146,1335.21,368.9,1236,512.08,1236,512.08,1038.5,751,959.66,835.85Z" fill="#ab5094"/>
    <path d="M959.66,835.85V390.08C818.2,146,584.12,368.9,683.36,512.08,683.36,512.08,880.83,751,959.66,835.85Z" fill="#ab5094"/>
  </g>
  <g id="レイヤー_12" data-name="レイヤー 12">
    <polygon points="959.99 1017.44 1370.34 306.69 549.64 306.69 959.99 1017.44" fill="#d26e28"/>
    <path d="M562.69,472.51,422.6,229.86a6.1,6.1,0,0,1,5.28-9.15H708.07a6.1,6.1,0,0,1,5.27,9.15L573.25,472.51A6.1,6.1,0,0,1,562.69,472.51Z" fill="#d26e28"/>
    <path d="M1346.75,472.53,1206.62,229.81a6.07,6.07,0,0,1,5.26-9.11h280.27a6.07,6.07,0,0,1,5.25,9.11L1357.27,472.53A6.07,6.07,0,0,1,1346.75,472.53Z" fill="#d26e28"/>
  </g>
  <g id="レイヤー_13" data-name="レイヤー 13">
    <rect x="618.53" y="484.17" width="682.94" height="531.48" rx="5.05" fill="#dbc426"/>
    <path d="M956.9,73.16l-509,394.73a5,5,0,0,0,3.1,9H1469a5,5,0,0,0,3.1-9L963.1,73.16A5.07,5.07,0,0,0,956.9,73.16Z" fill="#c93e2a"/>
    <rect x="1269.14" y="98.63" width="64.67" height="190.93" rx="5.05" fill="#dbc426"/>
    <rect x="724.57" y="631.38" width="205.91" height="384.27" rx="5.05" fill="#ce5c29"/>
    <rect x="960" y="588.26" width="280.14" height="218.01" rx="10.1" fill="#44a798"/>
  </g>
  <g id="レイヤー_14" data-name="レイヤー 14">
    <path d="M960,963.73,1255.41,654.4a5.91,5.91,0,0,0,1.39-3.49V78.55c0-6.26-3.8-8-8.44-3.74L961.66,334.24A5.8,5.8,0,0,0,960,338Z" fill="#3e9f49"/>
    <path d="M960,963.73,664.59,654.4a5.08,5.08,0,0,1-1.39-3.49V78.55a5,5,0,0,1,8.44-3.74l286.7,259.43A5.05,5.05,0,0,1,960,338Z" fill="#dbc426"/>
  </g>
  <g id="レイヤー_16" data-name="レイヤー 16">
    <path d="M1249.67,546.61c75.46-79.64,133.58-141.9,133.58-141.9C1535.29,210.5,1176.7-91.84,960,239.22V843.88l.08-.07c216.71,319.79,575.19,27.62,423.17-160.06C1383.25,683.75,1325.13,623.58,1249.67,546.61Z" fill="#d16d29"/>
    <path d="M670.33,546.61C594.87,467,536.75,404.71,536.75,404.71,384.71,210.5,743.3-91.84,960,239.22V843.88l-.08-.07C743.21,1163.6,384.73,871.43,536.75,683.75,536.75,683.75,594.87,623.58,670.33,546.61Z" fill="#d16d29"/>
    <path d="M1152,742.24c105.86-2.17,188-4.47,188-4.47,236.45-27.29,200.93-478.53-173.34-402.86l-13.78,13.61L751.57,744.77l-.13.13h.1c-72.66,365.64,371,413.71,396.85,182.07C1148.39,927,1150.3,846.25,1152,742.24Z" fill="#c62f6f"/>
    <path d="M759.17,344.42c3.52-105.82,6.86-188,6.86-188,30.28-236.08,481-194.85,400.63,178.44l-13.78,13.61L751.57,744.77l-.13.13v-.11c-366.54,68-409-376.25-177-399.12C574.42,345.67,655.15,344.78,759.17,344.42Z" fill="#c62f6f"/>
    <circle cx="960" cy="538.99" r="172.71" fill="#dbc426"/>
  </g>
  <g id="レイヤー_17" data-name="レイヤー 17">
    <polygon points="960 304.81 722.52 716.13 1197.47 716.13 960 304.81" fill="#3e9f49"/>
    <polygon points="1319.47 304.81 1081.99 716.13 1556.94 716.13 1319.47 304.81" fill="#3e9f49"/>
    <polygon points="600.53 304.81 363.06 716.13 838.01 716.13 600.53 304.81" fill="#3e9f49"/>
    <polygon points="1144.2 450.42 990.79 716.13 1297.61 716.13 1144.2 450.42" fill="#8bb93d"/>
    <polygon points="775.8 450.42 622.39 716.13 929.21 716.13 775.8 450.42" fill="#8bb93d"/>
  </g>
  <g id="レイヤー_18" data-name="レイヤー 18">
    <path d="M1222.15,342.23c-27.67-73.87-121.9-215.1-261.53-206.33C821,127.13,726.76,268.36,699.08,342.23,635.16,512.87,699,995.08,699,995.08h523.3S1286.08,512.87,1222.15,342.23Z" fill="#44a798"/>
    <path d="M465.52,978.87,622,728.33a10.54,10.54,0,0,1,19.42,4.42l27.88,249.76a10.55,10.55,0,0,1-10.43,11.72L474.5,995A10.54,10.54,0,0,1,465.52,978.87Z" fill="#d16d29"/>
    <path d="M1454.48,979,1298,728.41a10.54,10.54,0,0,0-19.42,4.42l-27.88,249.76a10.55,10.55,0,0,0,10.43,11.72l184.41.77A10.54,10.54,0,0,0,1454.48,979Z" fill="#d16d29"/>
    <circle cx="960" cy="628.62" r="172.71" fill="#e5e5e4"/>
    <circle cx="960" cy="628.62" r="137.94" fill="#325aa5"/>
  </g>
  <g id="レイヤー_15" data-name="レイヤー 15">
    <path d="M1340,537.17S1169.84,773.44,960,773.44,580,537.17,580,537.17,750.16,300.9,960,300.9,1340,537.17,1340,537.17Z" fill="#e5e5e4"/>
    <path d="M960.69,303.54a15,15,0,0,1-15-15V199.83a15,15,0,1,1,30,0v88.71A15,15,0,0,1,960.69,303.54Z" fill="#3c312d"/>
    <path d="M1176.24,372.35a15,15,0,0,1-11.48-24.64l66-78.64a15,15,0,0,1,23,19.29l-66,78.63A15,15,0,0,1,1176.24,372.35Z" fill="#3c312d"/>
    <path d="M745.14,372.35a15,15,0,0,1-11.5-5.36l-66-78.63a15,15,0,1,1,23-19.29l66,78.64a15,15,0,0,1-11.48,24.64Z" fill="#3c312d"/>
    <circle cx="960.69" cy="537.17" r="172.71" fill="#3c312d"/>
    <circle cx="1035.77" cy="472.63" r="54.02" fill="#e5e5e4"/>
  </g>
  <g id="レイヤー_19" data-name="レイヤー 19">
    <path d="M960,942.4c301,0,545.07-120.64,545.07-269.45H414.93C414.93,821.76,659,942.4,960,942.4Z" fill="#325aa5"/>
    <path d="M960,669.4a15,15,0,0,1-15-15V151a15,15,0,0,1,30,0V654.4A15,15,0,0,1,960,669.4Z" fill="#3c312d"/>
    <polygon points="984.64 456.61 980.63 150.98 1247.32 300.32 984.64 456.61" fill="#c93e2a"/>
  </g>
  <g id="レイヤー_20" data-name="レイヤー 20">
    <path d="M898.6,988.18l344.84-384.42a7.08,7.08,0,0,0-3.22-12.51L981.71,423.09,887.22,981.45A7.07,7.07,0,0,0,898.6,988.18Z" fill="#dbc426"/>
    <path d="M1021.4,89.79,676.56,474.21a7.08,7.08,0,0,0,3.22,12.52L938.29,654.88l94.49-558.36A7.08,7.08,0,0,0,1021.4,89.79Z" fill="#dbc426"/>
  </g>
  <g id="レイヤー_21" data-name="レイヤー 21">
    <path d="M1466.17,650.91a125.43,125.43,0,0,0,.65-13.38c-.41-81-78.19-138.19-135.23-174.5C1205.29,382.63,1068.38,347,960,352,851.62,347,714.71,382.63,588.41,463c-57,36.31-134.82,93.53-135.23,174.5a125.43,125.43,0,0,0,.65,13.38c-.43,5.06-.65,10.19-.65,15.36A178.6,178.6,0,0,0,631.79,844.88h1.7c5.65,0,11.24-.37,16.76-.93,34.82-3.14,82.22-13.52,104.45-21.67,70-25.67,132.42-49.75,190.93-49.75a113.82,113.82,0,0,0,14.37-1,113.82,113.82,0,0,0,14.37,1c58.51,0,120.88,24.08,190.93,49.75,22.23,8.15,69.63,18.53,104.45,21.67,5.52.56,11.11.88,16.76.93h1.7a178.6,178.6,0,0,0,178.61-178.61C1466.82,661.1,1466.6,656,1466.17,650.91Z" fill="#44a798"/>
    <path d="M887,1042.6a15,15,0,0,1-15-15V920.85a15,15,0,1,1,30,0V1027.6A15,15,0,0,1,887,1042.6Z" fill="#44a798"/>
    <path d="M740.94,1042.6a15,15,0,0,1-15-15V920.85a15,15,0,1,1,30,0V1027.6A15,15,0,0,1,740.94,1042.6Z" fill="#44a798"/>
    <path d="M1179.06,1042.6a15,15,0,0,1-15-15V920.85a15,15,0,1,1,30,0V1027.6A15,15,0,0,1,1179.06,1042.6Z" fill="#44a798"/>
    <path d="M1033,1042.6a15,15,0,0,1-15-15V920.85a15,15,0,1,1,30,0V1027.6A15,15,0,0,1,1033,1042.6Z" fill="#44a798"/>
    <path d="M545.65,1044.64a15.65,15.65,0,0,1-2-.11,15,15,0,0,1,2.59-29.86c5.92-.33,36.49-5.94,58-27.44,19.81-19.8,25.3-59.16,25-68.32a15,15,0,0,1,29.33-6.06c1.85,6.85-.62,25.36-4.07,39.3-4.08,16.5-12.43,39.66-29.06,56.29C596.91,1037,557.37,1044.64,545.65,1044.64Zm1.79-29.87h0Zm82.17-94.15v0Zm-.37-2.06Z" fill="#44a798"/>
    <path d="M1374.35,1044.64c-11.71,0-51.25-7.66-79.8-36.2-16.63-16.63-25-39.79-29.06-56.29-3.45-13.94-5.92-32.45-4.07-39.31a15,15,0,0,1,29.33,6.07c-.28,9.16,5.21,48.52,25,68.32,21.5,21.5,52.07,27.11,58,27.44a15,15,0,0,1,2.59,29.86A15.65,15.65,0,0,1,1374.35,1044.64Zm-1.79-29.87h0Zm-82.17-94.15v0Zm0,0h0Z" fill="#44a798"/>
  </g>
  <g id="レイヤー_22" data-name="レイヤー 22">
    <path d="M956.9,73.16l-509,394.73a5,5,0,0,0,3.1,9H1469a5,5,0,0,0,3.1-9L963.1,73.16A5.07,5.07,0,0,0,956.9,73.16Z" fill="#44a798"/>
  </g>
  <g id="レイヤー_23" data-name="レイヤー 23">
    <circle cx="960" cy="209.06" r="136.95" fill="#325aa5"/>
    <rect x="823.32" y="384.19" width="273.35" height="501.55" rx="7.58" fill="#325aa5"/>
    <rect x="829.71" y="909.96" width="75.17" height="140.86" rx="2.11" fill="#325aa5"/>
    <rect x="1015.11" y="909.96" width="75.17" height="140.86" rx="2.11" fill="#325aa5"/>
  </g>
  <g id="レイヤー_24" data-name="レイヤー 24">
    <circle cx="960" cy="209.06" r="136.95" fill="#c93e2a"/>
    <rect x="829.71" y="909.96" width="75.17" height="140.86" rx="2.11" fill="#c93e2a"/>
    <rect x="1015.11" y="909.96" width="75.17" height="140.86" rx="2.11" fill="#c93e2a"/>
    <path d="M955.33,386.94,668.9,883.06a5.39,5.39,0,0,0,4.67,8.08h572.86a5.39,5.39,0,0,0,4.67-8.08L964.67,386.94A5.4,5.4,0,0,0,955.33,386.94Z" fill="#c93e2a"/>
  </g>
  <g id="レイヤー_25" data-name="レイヤー 25">
    <path d="M954.67,43.19,794.09,321.31a6.16,6.16,0,0,0,5.34,9.24h321.14a6.16,6.16,0,0,0,5.34-9.24L965.33,43.19A6.16,6.16,0,0,0,954.67,43.19Z" fill="#ab5094"/>
    <path d="M965.33,1028.41l160.58-278.12a6.16,6.16,0,0,0-5.34-9.24H799.43a6.16,6.16,0,0,0-5.34,9.24l160.58,278.12A6.16,6.16,0,0,0,965.33,1028.41Z" fill="#ab5094"/>
    <path d="M467.39,544.32,745.51,704.89a6.16,6.16,0,0,0,9.24-5.33V378.41a6.16,6.16,0,0,0-9.24-5.33L467.39,533.65A6.17,6.17,0,0,0,467.39,544.32Z" fill="#ab5094"/>
    <path d="M1452.61,533.65,1174.49,373.08a6.16,6.16,0,0,0-9.24,5.33V699.56a6.16,6.16,0,0,0,9.24,5.33l278.12-160.57A6.17,6.17,0,0,0,1452.61,533.65Z" fill="#ab5094"/>
    <rect x="754.75" y="502.03" width="410.5" height="73.91" fill="#ab5094"/>
    <rect x="754.75" y="498.83" width="410.5" height="73.91" transform="translate(1495.78 -424.22) rotate(90)" fill="#ab5094"/>
  </g>
</svg>
